<svg xmlns="http://www.w3.org/2000/svg" xmlns:xlink="http://www.w3.org/1999/xlink" id="Layer_1" width="1000" height="1000" enable-background="new 0 0 1000 1000" version="1.1" viewBox="0 0 1000 1000" xml:space="preserve"><g><g><defs><circle id="SVGID_1_" cx="500" cy="500" r="500"/></defs><clipPath id="SVGID_2_"><use overflow="visible" xlink:href="#SVGID_1_"/></clipPath><rect width="1336" height="1000" x="-168" fill="#ED2224" clip-path="url(#SVGID_2_)"/><rect width="668" height="1000" x="166" fill="#FFF" clip-path="url(#SVGID_2_)"/><path fill="#ED2224" d="M499.987,229.625l-45.573,85c-5.174,9.245-14.437,8.383-23.699,3.223 l-32.996-17.083l24.587,130.565c5.172,23.85-11.416,23.85-19.611,13.537L345.114,380.4l-9.349,32.743 c-1.075,4.299-5.818,8.812-12.929,7.735l-72.815-15.311l19.128,69.534c4.096,15.473,7.286,21.879-4.137,25.957l-25.95,12.199 l125.349,101.811c4.956,3.856,7.461,10.784,5.702,17.053l-10.974,36.003c43.16-4.978,81.831-12.46,125.009-17.071 c3.81-0.405,10.196,5.883,10.171,10.3l-5.722,131.897h20.987l-3.309-131.61c-0.026-4.417,5.768-10.992,9.577-10.587 c43.179,4.611,81.851,12.094,125.009,17.071l-10.974-36.003c-1.762-6.269,0.744-13.196,5.703-17.053l125.347-101.811 l-25.95-12.199c-11.422-4.077-8.232-10.483-4.136-25.957l19.126-69.534l-72.814,15.311c-7.111,1.077-11.854-3.437-12.93-7.735 l-9.347-32.743l-57.584,64.466c-8.192,10.313-24.781,10.313-19.608-13.537l24.587-130.565l-32.996,17.083 c-9.264,5.161-18.526,6.022-23.699-3.223" clip-path="url(#SVGID_2_)"/></g></g></svg>