<svg xmlns="http://www.w3.org/2000/svg" xmlns:svg="http://www.w3.org/2000/svg" id="svg5823" width="512" height="512" version="1.1"><defs id="defs5825"><clipPath id="clipPath5778" clipPathUnits="userSpaceOnUse"><rect id="rect5780" width="480" height="480" x="930.011" y="-79.228" style="fill:#2980b9;fill-opacity:1;stroke:none"/></clipPath><clipPath id="clipPath3061" clipPathUnits="userSpaceOnUse"><rect id="rect3063" width="480" height="480" x="16" y="556.362" style="fill:#2980b9;fill-opacity:1;stroke:none"/></clipPath><clipPath id="clipPath3448" clipPathUnits="userSpaceOnUse"><rect id="rect3450" width="480" height="480" x="16" y="556.362" style="fill:#2980b9;fill-opacity:1;stroke:none"/></clipPath><clipPath id="clipPath3470" clipPathUnits="userSpaceOnUse"><rect id="rect3472" width="480" height="480" x="16" y="556.362" style="fill:#2980b9;fill-opacity:1;stroke:none"/></clipPath><clipPath id="clipPath5670" clipPathUnits="userSpaceOnUse"><rect id="rect5672" width="480" height="480" x="-712" y="246.362" style="fill:#2980b9;fill-opacity:1;stroke:none"/></clipPath><clipPath id="clipPath5674" clipPathUnits="userSpaceOnUse"><rect id="rect5676" width="480" height="480" x="16" y="556.362" style="fill:#2980b9;fill-opacity:1;stroke:none"/></clipPath><clipPath id="clipPath5729" clipPathUnits="userSpaceOnUse"><rect id="rect5731" width="480" height="480" x="20.014" y="549.276" style="fill:#2980b9;fill-opacity:1;stroke:none"/></clipPath><clipPath id="clipPath5806" clipPathUnits="userSpaceOnUse"><rect id="rect5808" width="480" height="480" x="20.014" y="549.276" style="fill:#2980b9;fill-opacity:1;stroke:none"/></clipPath><clipPath id="clipPath4379" clipPathUnits="userSpaceOnUse"><path id="path4381" d="m -360,118 a 208,208 0 1 1 -416,0 208,208 0 1 1 416,0 z" transform="matrix(1.1538462,0,0,1.1538462,915.3991,653.1224)" style="fill:#f1c40f;fill-opacity:1;stroke:none"/></clipPath></defs><g id="layer1" transform="translate(0,-540.36218)"><g id="g5733"><g id="g5810" clip-path="url(#clipPath4379)" transform="translate(-4.0144558,7.0859349)"><g id="g5787" clip-path="url(#clipPath5806)"><rect id="rect2999" width="480" height="480" x="20.014" y="549.276" style="fill:#2b4896;fill-opacity:1;stroke:none"/><g id="g5769"><path id="path5417" d="m 232.19609,761.96312 -256.656242,284.68748 50.25,0 0,15.9062 241.031242,-270.43743 z" style="fill:#fff;fill-opacity:1;stroke:none"/><path id="path5415" d="m -8.75279,1084.1356 248.17417,-276.38741 -18.92417,1.85616 0,-0.875 -240.8125,264.90625 z" style="fill:#e32d3c;fill-opacity:1;stroke:none"/></g><g id="g5755"><path id="rect3435" d="m 498.79506,514.95268 -256.65625,284.6875 50.25,0 0,15.90625 242.03125,-268.4375 -35.625,-32.15625 z" style="fill:#fff;fill-opacity:1;stroke:none"/><path id="rect5381" d="m 509.26444,518.74497 -249.5,274.53125 20.25,0 0,0.875 240.8125,-264.90625 -11.5625,-10.5 z" style="fill:#e32d3c;fill-opacity:1;stroke:none"/></g><g id="g5779" transform="matrix(0.99932034,0.03686276,0.03686276,-0.99932034,-297.11434,1319.5878)"><path id="path5781" d="m 498.79506,514.95268 -256.65625,284.6875 50.25,0 0,15.90625 242.03125,-268.4375 -35.625,-32.15625 z" style="fill:#fff;fill-opacity:1;stroke:none"/><path id="path5783" d="m 509.26444,518.74497 -249.5,274.53125 20.25,0 0,0.875 240.8125,-264.90625 -11.5625,-10.5 z" style="fill:#e32d3c;fill-opacity:1;stroke:none"/></g><rect id="rect3001" width="80" height="480" x="220.014" y="549.276" style="fill:#fff;fill-opacity:1;stroke:none"/><g id="g5759" transform="matrix(-1,0,0,1,797.31017,256.40901)"><path id="path5761" d="m 498.79506,514.95268 -256.65625,284.6875 50.25,0 0,15.90625 242.03125,-268.4375 -35.625,-32.15625 z" style="fill:#fff;fill-opacity:1;stroke:none"/><path id="path5763" d="m 509.26444,518.74497 -249.5,274.53125 20.25,0 0,0.875 240.8125,-264.90625 -11.5625,-10.5 z" style="fill:#e32d3c;fill-opacity:1;stroke:none"/></g><rect id="rect3003" width="80" height="480" x="749.276" y="-500.014" transform="matrix(0,1,-1,0,0,0)" style="fill:#fff;fill-opacity:1;stroke:none"/><rect id="rect3005" width="48" height="480" x="236.014" y="549.276" style="fill:#e32d3c;fill-opacity:1;stroke:none"/><rect id="rect3008" width="48" height="480" x="765.276" y="-500.014" transform="matrix(0,1,-1,0,0,0)" style="fill:#e32d3c;fill-opacity:1;stroke:none"/></g></g></g></g></svg>